<svg id="canvas" height="auto" xmlns="http://www.w3.org/2000/svg" version="1.1" xmlns:xlink="http://www.w3.org/1999/xlink" viewBox="0 0 900 512" width="auto" style="width: auto; height: auto;"><defs><linearGradient gradientTransform="matrix(6.123233995736766e-17,1,-1,6.123233995736766e-17,0,0)" id="SvgjsLinearGradient1105"><stop stop-color="#000000ff" offset="0"/><stop stop-color="#000000ff" offset="1"/></linearGradient><linearGradient gradientTransform="matrix(-0.25881904510252085,0.9659258262890683,-0.9659258262890683,-0.25881904510252085,0,0)" id="SvgjsLinearGradient1106"><stop stop-color="#6fd97aff" offset="0"/><stop stop-color="#2fb33dff" offset="1"/></linearGradient><linearGradient gradientTransform="matrix(-0.25881904510252085,0.9659258262890683,-0.9659258262890683,-0.25881904510252085,0,0)" id="SvgjsLinearGradient1107"><stop stop-color="#051106ff" offset="0"/><stop stop-color="#2fb33dff" offset="1"/></linearGradient></defs><rect width="900" height="512" fill="url(#SvgjsLinearGradient1105)"/><g transform="matrix(0.3384135525761094,0,0,0.3384135525761094,-197.15276133231941,239.75278674352165)"><path d="M291 448.5L369.5 2L2 448.5H291Z" fill="url(#SvgjsLinearGradient1106)" transform="matrix(1,0,0,1,-300,360.390728445903)"/><path d="M290.5 448L370 2.5L708.5 448H290.5Z" fill="url(#SvgjsLinearGradient1107)" transform="matrix(1,0,0,1,-300,360.390728445903)"/></g><g transform="matrix(0.5078837257895268,0,0,0.5078837257895268,0.9842325484209464,140.97560352740092)"><path d="M291 448.5L369.5 2L2 448.5H291Z" fill="url(#SvgjsLinearGradient1106)" transform="matrix(1,0,0,1,0,284.468090846292)"/><path d="M290.5 448L370 2.5L708.5 448H290.5Z" fill="url(#SvgjsLinearGradient1107)" transform="matrix(1,0,0,1,0,284.468090846292)"/></g><g transform="matrix(0.7391768651817319,0,0,0.7391768651817319,78.76858671511698,47.691189425997464)"><path d="M291 448.5L369.5 2L2 448.5H291Z" fill="url(#SvgjsLinearGradient1106)" transform="matrix(1,0,0,1,300,180.84876439858414)"/><path d="M290.5 448L370 2.5L708.5 448H290.5Z" fill="url(#SvgjsLinearGradient1107)" transform="matrix(1,0,0,1,300,180.84876439858414)"/></g><g transform="matrix(0.21901201109865664,0,0,0.21901201109865664,470.1547693186087,324.7993383498377)"><path d="M291 448.5L369.5 2L2 448.5H291Z" fill="url(#SvgjsLinearGradient1106)" transform="matrix(1,0,0,1,600,413.8826190278018)"/><path d="M290.5 448L370 2.5L708.5 448H290.5Z" fill="url(#SvgjsLinearGradient1107)" transform="matrix(1,0,0,1,600,413.8826190278018)"/></g></svg>